# xmcd
#
# Track frame offsets: 
#        187
#        7425
#        79470
#        166532
#        175522
#        276400
#        302455
#
# Disc length: 4132 seconds
#
# Revision: 2
# Processed by: cddbd v1.5.2PL0 Copyright (c) Steve Scherf et al.
# Submitted via: ExactAudioCopy v1.1
#
DISCID=51102207
DTITLE=井内秀治 - 超魔神英雄伝ワタル【ドラマアルバム4】
DYEAR=1999
DGENRE=Drama
TTITLE0=三重野瞳 - オーブニング・テーマ「ひとつのハートで」(Short Version)
TTITLE1=田中真弓・西村知道・林原めぐみ・伊倉一恵・伊藤健太郎・宮村優子・林延年・橫山智佐・愛河里花子・保志総一朗・白鳥由里・他 - 
TTITLE1=第1部《翼剣物語ー翼の剣を持つ少年ー》第4話「光る翼」前半
TTITLE2=田中真弓・西村知道・林原めぐみ・伊倉一恵・伊藤健太郎・宮村優子・林延年・橫山智佐・愛河里花子・保志総一朗・白鳥由里・他 - 
TTITLE2=第1部《翼剣物語ー翼の剣を持つ少年ー》第4話「光る翼」後半
TTITLE3=伊倉一恵 - 第1部 エンディング・テーマ「君に続く空」(Short Version)
TTITLE4=田中真弓・林原めぐみ・伊藤健太郎・西村知道・玄田哲章・林延年・橫山智佐・愛河里花子・伊倉一恵・宮村優子・安達忍 - 第2部《
TTITLE4=爆オモ！ドラマシアター》第4話「さらにもうひとつの救世主ワタル」
TTITLE5=愛河里花子・林原めぐみ・玄田哲章・西村知道 - おまけ《愛のはに・わぁ・まん劇場》第4話「良い子悪い子」
TTITLE6=三重野瞳 - エンディング・テーマ「BOYS BE AMBITIOUS」(Short Version)
EXTD=
EXTT0=
EXTT1=
EXTT2=
EXTT3=
EXTT4=
EXTT5=
EXTT6=
PLAYORDER=
